<?xml version="1.0" ?>
<!-- Uploaded to: SVG Repo, www.svgrepo.com, Generator: SVG Repo Mixer Tools -->
<svg width="800px" height="800px" viewBox="0 0 64 64" enable-background="new 0 0 64 64" id="Filled_Outline_00000067219907487444458210000009573402626722376610_" version="1.1" xml:space="preserve" xmlns="http://www.w3.org/2000/svg" xmlns:xlink="http://www.w3.org/1999/xlink">
<g>
<g>
<path d="M41,17h-0.1c-2.705-1.27-5.714-2-8.9-2s-6.195,0.73-8.9,2H23C10.85,17,1,26.85,1,39v0    c0,12.15,9.85,22,22,22h0.1c2.705,1.27,5.714,2,8.9,2s6.195-0.73,8.9-2H41c12.15,0,22-9.85,22-22v0C63,26.85,53.15,17,41,17z" fill="#FF6D1F"/>
<path d="M21,4L21,4c0,1.657,1.343,3,3,3h0c2.761,0,5,2.239,5,5v3h6v-3c0-6.075-4.925-11-11-11h0    C22.343,1,21,2.343,21,4z" fill="#A69D24"/>
<path d="M44,53l-3-3l-3,3l-3-3l-3,3l-3-3l-3,3l-3-3l-3,3l-5-10l5,3l3-3l3,3l3-3l3,3l3-3l3,3l3-3l3,3l5-3L44,53z     M29,35l-7-7l-7,7H29z M49,35l-7-7l-7,7H49z" fill="#732002"/>
</g>
<g>
<path d="M48.485,42.143l-4.33,2.599l-2.448-2.448c-0.391-0.391-1.023-0.391-1.414,0L38,44.586l-2.293-2.293    c-0.391-0.391-1.023-0.391-1.414,0L32,44.586l-2.293-2.293c-0.391-0.391-1.023-0.391-1.414,0L26,44.586l-2.293-2.293    c-0.391-0.391-1.023-0.391-1.414,0l-2.448,2.448l-4.331-2.599c-0.382-0.229-0.868-0.178-1.194,0.124    c-0.326,0.302-0.414,0.783-0.215,1.181l5,10c0.144,0.287,0.417,0.488,0.734,0.54c0.317,0.055,0.64-0.052,0.867-0.28L23,51.414    l2.293,2.293c0.391,0.391,1.023,0.391,1.414,0L29,51.414l2.293,2.293c0.391,0.391,1.023,0.391,1.414,0L35,51.414l2.293,2.293    c0.391,0.391,1.023,0.391,1.414,0L41,51.414l2.293,2.293C43.481,53.896,43.737,54,44,54c0.053,0,0.106-0.004,0.16-0.013    c0.317-0.052,0.591-0.253,0.734-0.54l5-10c0.198-0.397,0.111-0.879-0.215-1.181C49.353,41.965,48.866,41.914,48.485,42.143z     M43.726,51.312l-2.019-2.019c-0.391-0.391-1.023-0.391-1.414,0L38,51.586l-2.293-2.293C35.512,49.098,35.256,49,35,49    s-0.512,0.098-0.707,0.293L32,51.586l-2.293-2.293c-0.391-0.391-1.023-0.391-1.414,0L26,51.586l-2.293-2.293    c-0.391-0.391-1.023-0.391-1.414,0l-2.019,2.019l-2.844-5.688l2.055,1.233c0.395,0.237,0.898,0.174,1.222-0.15L23,44.414    l2.293,2.293c0.391,0.391,1.023,0.391,1.414,0L29,44.414l2.293,2.293c0.391,0.391,1.023,0.391,1.414,0L35,44.414l2.293,2.293    c0.391,0.391,1.023,0.391,1.414,0L41,44.414l2.293,2.293c0.323,0.325,0.827,0.386,1.222,0.15l2.055-1.233L43.726,51.312z" fill="#260A04"/>
<path d="M15,36h14c0.404,0,0.769-0.243,0.924-0.617s0.069-0.804-0.217-1.09l-7-7c-0.391-0.391-1.023-0.391-1.414,0    l-7,7c-0.286,0.286-0.372,0.716-0.217,1.09S14.596,36,15,36z M22,29.414L26.586,34h-9.172L22,29.414z" fill="#260A04"/>
<path d="M42.707,27.293c-0.391-0.391-1.023-0.391-1.414,0l-7,7c-0.286,0.286-0.372,0.716-0.217,1.09    C34.23,35.757,34.596,36,35,36h14c0.404,0,0.77-0.243,0.924-0.617c0.155-0.374,0.069-0.804-0.217-1.09L42.707,27.293z M37.414,34    L42,29.414L46.586,34H37.414z" fill="#260A04"/>
<path d="M64,39c0-12.63-10.233-22.911-22.843-22.996c-1.623-0.746-3.351-1.3-5.157-1.633V12    c0-6.617-5.383-12-12-12c-2.206,0-4,1.794-4,4s1.794,4,4,4s4,1.794,4,4v2.371c-1.805,0.333-3.534,0.887-5.157,1.633    C10.233,16.089,0,26.37,0,39c0,12.63,10.233,22.911,22.843,22.996C25.633,63.279,28.733,64,32,64s6.367-0.721,9.157-2.004    C53.767,61.911,64,51.63,64,39z M24,6c-1.103,0-2-0.897-2-2s0.897-2,2-2c5.514,0,10,4.486,10,10v2.095    C33.341,14.035,32.675,14,32,14s-1.341,0.035-2,0.095V12C30,8.691,27.309,6,24,6z M45.218,59.574C50.547,55.555,54,49.174,54,42    h-2c0,11.028-8.972,20-20,20c-11.028,0-20-8.972-20-20h-2c0,7.174,3.453,13.555,8.782,17.574C9.217,57.616,2,49.135,2,39    s7.217-18.616,16.782-20.574C13.453,22.445,10,28.826,10,36h2c0-11.028,8.972-20,20-20c11.028,0,20,8.972,20,20h2    c0-7.174-3.453-13.555-8.782-17.574C54.782,20.384,62,28.865,62,39S54.782,57.616,45.218,59.574z" fill="#260A04"/>
</g>
</g>
</svg>